<svg width="26" height="25" viewBox="0 0 26 25" fill="none" xmlns="http://www.w3.org/2000/svg">
<path d="M14.625 12.9422C15.4869 12.9422 16.3136 13.2831 16.9231 13.8899C17.5326 14.4967 17.875 15.3197 17.875 16.1778V18.6044C17.875 21.9274 14.482 24.2667 8.93749 24.2667C3.393 24.2667 0 21.9274 0 18.6044V16.1778C0 15.3197 0.342409 14.4967 0.951902 13.8899C1.56139 13.2831 2.38804 12.9422 3.25 12.9422H14.625ZM8.93749 0C9.68438 -1.10801e-08 10.424 0.146458 11.114 0.431011C11.804 0.715564 12.431 1.13264 12.9592 1.65843C13.4873 2.18421 13.9062 2.80841 14.1921 3.49538C14.4779 4.18236 14.625 4.91865 14.625 5.66222C14.625 6.4058 14.4779 7.14209 14.1921 7.82906C13.9062 8.51603 13.4873 9.14023 12.9592 9.66602C12.431 10.1918 11.804 10.6089 11.114 10.8934C10.424 11.178 9.68438 11.3244 8.93749 11.3244C7.42907 11.3244 5.98244 10.7279 4.91583 9.66602C3.84921 8.60415 3.25 7.16394 3.25 5.66222C3.25 4.16051 3.84921 2.7203 4.91583 1.65843C5.98244 0.596554 7.42907 2.23773e-08 8.93749 0Z" fill="#17648F"/>
<path d="M22.75 12.7401C23.6119 12.7401 24.4386 13.081 25.0481 13.6878C25.6576 14.2946 26 15.1175 26 15.9757V16.7846C26 20.1641 23.452 22.4468 18.6875 22.4468C18.4584 22.4468 18.2325 22.4419 18.0147 22.4306C18.9018 21.4153 19.4208 20.1329 19.4886 18.789L19.5 18.4023V15.9757C19.5 14.8562 19.1197 13.824 18.4795 13.0038L18.2569 12.7401H22.75ZM20.3125 3.03345C21.3899 3.03345 22.4232 3.45956 23.1851 4.21804C23.947 4.97652 24.375 6.00524 24.375 7.07789C24.375 8.15055 23.947 9.17927 23.1851 9.93775C22.4232 10.6962 21.3899 11.1223 20.3125 11.1223C19.2351 11.1223 18.2017 10.6962 17.4399 9.93775C16.678 9.17927 16.25 8.15055 16.25 7.07789C16.25 6.00524 16.678 4.97652 17.4399 4.21804C18.2017 3.45956 19.2351 3.03345 20.3125 3.03345Z" fill="#FF5D2C"/>
</svg>
