<svg width="37" height="29" viewBox="0 0 37 29" fill="none" xmlns="http://www.w3.org/2000/svg">
<path d="M11.7182 0H2.97935L2.98161 0.00124757C2.18858 0.0084789 1.43024 0.362442 0.871792 0.98604C0.313335 1.60964 -3.8147e-06 2.45235 2.28882e-05 3.33063V20.3389C0.000324249 21.2201 0.316563 22.0652 0.879242 22.6883C1.44192 23.3115 2.20499 23.6617 3.00074 23.662H8.60724C14.989 23.662 16.8949 25.3516 17.8141 28.8542C17.8636 29.0486 18.1449 29.0486 18.1888 28.8542C19.1013 25.3504 21.0072 23.662 27.3957 23.662H33.0022C33.798 23.6617 34.561 23.3115 35.1237 22.6883C35.6864 22.0652 36.0026 21.2201 36.0029 20.3389V3.32315C36.0026 2.4419 35.6864 1.59683 35.1237 0.973694C34.561 0.350554 33.798 0.000331882 33.0022 0H24.2701C22.8096 -0.00018936 21.3925 0.550079 20.2519 1.56031C19.1113 2.57054 18.315 3.98057 17.9942 5.55852C17.674 3.98014 16.878 2.56959 15.7372 1.55921C14.5965 0.548838 13.1789 -0.00109564 11.7182 0Z" fill="#17648F"/>
<rect x="4.50195" y="6.23047" width="9.00101" height="2.49205" rx="1.24603" fill="#FF5D2C"/>
<path d="M22.5039 7.47649C22.5039 6.78833 23.0618 6.23047 23.7499 6.23047H31.384C32.0722 6.23047 32.63 6.78833 32.63 7.47649C32.63 8.16465 32.0722 8.72252 31.384 8.72252H23.7499C23.0618 8.72252 22.5039 8.16465 22.5039 7.47649Z" fill="#FF5D2C"/>
<rect x="4.50195" y="11.2141" width="9.00101" height="2.49205" rx="1.24603" fill="#FF5D2C"/>
<rect x="22.5039" y="11.2141" width="10.1261" height="2.49205" rx="1.24603" fill="#FF5D2C"/>
<rect x="4.50195" y="16.1985" width="9.00101" height="2.49205" rx="1.24603" fill="#FF5D2C"/>
<rect x="22.5039" y="16.1985" width="10.1261" height="2.49205" rx="1.24603" fill="#FF5D2C"/>
</svg>
