<svg width="30" height="25" viewBox="0 0 30 25" fill="none" xmlns="http://www.w3.org/2000/svg">
<path d="M28.8631 12.1594C28.8774 12.633 28.8378 13.1206 28.7427 13.62L28.732 13.6752C28.3908 15.3978 27.3892 17.2642 25.7275 19.2724C25.379 19.6959 25.0327 20.0871 24.6867 20.4455C22.8974 22.3102 21.1607 23.3356 19.4744 23.5234C19.0907 23.5649 18.7027 23.5087 18.3466 23.36C17.9904 23.2113 17.6777 22.9749 17.4374 22.6728L17.3076 22.4982L16.8171 21.7682C16.6115 21.4538 16.5114 21.0819 16.5314 20.7067C16.5514 20.3315 16.6904 19.9725 16.9282 19.6816L17.0473 19.5533L18.2315 18.3794C18.4275 18.1822 18.6722 18.0404 18.9408 17.9683C19.2093 17.8961 19.4921 17.8962 19.7606 17.9686C19.819 17.9841 19.8782 18.0058 19.9371 18.0295L20.09 18.1064L21.678 19.0027C22.4562 18.6219 23.1461 18.0847 23.7508 17.3958C24.2452 16.8425 24.6366 16.2054 24.9069 15.5144L25.0229 15.1808L23.8696 13.5646C23.6839 13.2979 23.5758 12.9849 23.5573 12.6605C23.5387 12.336 23.6105 12.0127 23.7645 11.7266L23.8563 11.5704L24.7935 10.1828C24.991 9.87332 25.2905 9.6426 25.64 9.53045C25.9896 9.41831 26.3674 9.43178 26.7081 9.56855L26.8523 9.63753L27.6051 10.05C28.354 10.4618 28.8307 11.2627 28.8615 12.1571L28.8631 12.1594Z" fill="#FF5D2C"/>
<path d="M0 3.60288C0 1.61409 1.56468 0 3.49259 0H24.4481C26.376 0 27.9407 1.61409 27.9407 3.60288V8.10545C27.5807 7.84198 27.1835 7.63714 26.7632 7.49811L25.9449 7.23047V3.60288C25.9449 3.19336 25.7872 2.80062 25.5065 2.51104C25.2258 2.22147 24.8451 2.05879 24.4481 2.05879H3.49259C3.09561 2.05879 2.71488 2.22147 2.43417 2.51104C2.15346 2.80062 1.99576 3.19336 1.99576 3.60288V16.985C1.99576 17.8373 2.66634 18.5291 3.49259 18.5291H7.98306V16.4703C7.98306 15.9243 8.19333 15.4006 8.5676 15.0145C8.94188 14.6284 9.44951 14.4115 9.97882 14.4115H17.9619C18.4912 14.4115 18.9988 14.6284 19.3731 15.0145C19.7474 15.4006 19.9576 15.9243 19.9576 16.4703V16.8924C19.3642 16.8815 18.7775 17.0241 18.2511 17.3072C17.7247 17.5902 17.2754 18.0046 16.944 18.5126L15.9841 19.9661L15.8404 20.2132L15.8144 20.2585C15.7588 20.3657 15.7082 20.4756 15.6628 20.5879H3.49259C2.5663 20.5879 1.67794 20.2083 1.02296 19.5326C0.367968 18.857 0 17.9405 0 16.985V3.60288ZM17.9619 8.23516C17.9619 9.3272 17.5413 10.3745 16.7928 11.1467C16.0442 11.9189 15.029 12.3527 13.9704 12.3527C12.9117 12.3527 11.8965 11.9189 11.1479 11.1467C10.3994 10.3745 9.97882 9.3272 9.97882 8.23516C9.97882 7.14311 10.3994 6.09578 11.1479 5.32359C11.8965 4.55139 12.9117 4.11758 13.9704 4.11758C15.029 4.11758 16.0442 4.55139 16.7928 5.32359C17.5413 6.09578 17.9619 7.14311 17.9619 8.23516Z" fill="#17648F"/>
</svg>
