<svg width="36" height="36" viewBox="0 0 36 36" fill="none" xmlns="http://www.w3.org/2000/svg">
<path d="M18 10.5C16.0109 10.5 14.1032 11.2902 12.6967 12.6967C11.2902 14.1032 10.5 16.0109 10.5 18C10.5 19.9891 11.2902 21.8968 12.6967 23.3033C14.1032 24.7098 16.0109 25.5 18 25.5C19.9891 25.5 21.8968 24.7098 23.3033 23.3033C24.7098 21.8968 25.5 19.9891 25.5 18C25.5 16.0109 24.7098 14.1032 23.3033 12.6967C21.8968 11.2902 19.9891 10.5 18 10.5Z" fill="#FF5D2C"/>
<path fill-rule="evenodd" clip-rule="evenodd" d="M18 1.5C18.3978 1.5 18.7794 1.65804 19.0607 1.93934C19.342 2.22064 19.5 2.60218 19.5 3V4.5C19.5 4.89782 19.342 5.27936 19.0607 5.56066C18.7794 5.84196 18.3978 6 18 6C17.6022 6 17.2206 5.84196 16.9393 5.56066C16.658 5.27936 16.5 4.89782 16.5 4.5V3C16.5 2.60218 16.658 2.22064 16.9393 1.93934C17.2206 1.65804 17.6022 1.5 18 1.5ZM4.9395 4.9395C5.22079 4.65829 5.60225 4.50032 6 4.50032C6.39775 4.50032 6.77921 4.65829 7.0605 4.9395L9.3105 7.1895C9.58374 7.4724 9.73493 7.85131 9.73151 8.2446C9.72809 8.6379 9.57034 9.01412 9.29223 9.29223C9.01412 9.57034 8.6379 9.72809 8.2446 9.73151C7.85131 9.73493 7.4724 9.58374 7.1895 9.3105L4.9395 7.0605C4.65829 6.77921 4.50032 6.39775 4.50032 6C4.50032 5.60225 4.65829 5.22079 4.9395 4.9395ZM31.0605 4.9395C31.3417 5.22079 31.4997 5.60225 31.4997 6C31.4997 6.39775 31.3417 6.77921 31.0605 7.0605L28.8105 9.3105C28.6721 9.45376 28.5066 9.56804 28.3236 9.64665C28.1406 9.72527 27.9438 9.76664 27.7446 9.76838C27.5454 9.77011 27.3479 9.73215 27.1636 9.65673C26.9792 9.58131 26.8117 9.46993 26.6709 9.32909C26.5301 9.18825 26.4187 9.02078 26.3433 8.83643C26.2678 8.65209 26.2299 8.45457 26.2316 8.2554C26.2334 8.05623 26.2747 7.8594 26.3533 7.67639C26.432 7.49339 26.5462 7.32787 26.6895 7.1895L28.9395 4.9395C29.2208 4.65829 29.6023 4.50032 30 4.50032C30.3977 4.50032 30.7792 4.65829 31.0605 4.9395ZM1.5 18C1.5 17.6022 1.65804 17.2206 1.93934 16.9393C2.22064 16.658 2.60218 16.5 3 16.5H4.5C4.89782 16.5 5.27936 16.658 5.56066 16.9393C5.84196 17.2206 6 17.6022 6 18C6 18.3978 5.84196 18.7794 5.56066 19.0607C5.27936 19.342 4.89782 19.5 4.5 19.5H3C2.60218 19.5 2.22064 19.342 1.93934 19.0607C1.65804 18.7794 1.5 18.3978 1.5 18ZM30 18C30 17.6022 30.158 17.2206 30.4393 16.9393C30.7206 16.658 31.1022 16.5 31.5 16.5H33C33.3978 16.5 33.7794 16.658 34.0607 16.9393C34.342 17.2206 34.5 17.6022 34.5 18C34.5 18.3978 34.342 18.7794 34.0607 19.0607C33.7794 19.342 33.3978 19.5 33 19.5H31.5C31.1022 19.5 30.7206 19.342 30.4393 19.0607C30.158 18.7794 30 18.3978 30 18ZM9.3105 26.6895C9.59171 26.9708 9.74968 27.3523 9.74968 27.75C9.74968 28.1477 9.59171 28.5292 9.3105 28.8105L7.0605 31.0605C6.7776 31.3337 6.39869 31.4849 6.0054 31.4815C5.6121 31.4781 5.23588 31.3203 4.95777 31.0422C4.67966 30.7641 4.52191 30.3879 4.51849 29.9946C4.51507 29.6013 4.66626 29.2224 4.9395 28.9395L7.1895 26.6895C7.47079 26.4083 7.85225 26.2503 8.25 26.2503C8.64775 26.2503 9.02921 26.4083 9.3105 26.6895ZM26.6895 26.6895C26.9708 26.4083 27.3523 26.2503 27.75 26.2503C28.1477 26.2503 28.5292 26.4083 28.8105 26.6895L31.0605 28.9395C31.3337 29.2224 31.4849 29.6013 31.4815 29.9946C31.4781 30.3879 31.3203 30.7641 31.0422 31.0422C30.7641 31.3203 30.3879 31.4781 29.9946 31.4815C29.6013 31.4849 29.2224 31.3337 28.9395 31.0605L26.6895 28.8105C26.4083 28.5292 26.2503 28.1477 26.2503 27.75C26.2503 27.3523 26.4083 26.9708 26.6895 26.6895ZM18 30C18.3978 30 18.7794 30.158 19.0607 30.4393C19.342 30.7206 19.5 31.1022 19.5 31.5V33C19.5 33.3978 19.342 33.7794 19.0607 34.0607C18.7794 34.342 18.3978 34.5 18 34.5C17.6022 34.5 17.2206 34.342 16.9393 34.0607C16.658 33.7794 16.5 33.3978 16.5 33V31.5C16.5 31.1022 16.658 30.7206 16.9393 30.4393C17.2206 30.158 17.6022 30 18 30Z" fill="#FF5D2C"/>
</svg>
