<svg width="36" height="36" viewBox="0 0 36 36" fill="none" xmlns="http://www.w3.org/2000/svg">
<path d="M29.9442 22.4334C30.2162 21.7854 29.4389 21.2334 28.7869 21.5214C27.4836 22.0934 26.0755 22.3877 24.6522 22.3854C19.0721 22.3854 14.5494 17.9534 14.5494 12.4854C14.5474 10.6392 15.0719 8.83069 16.0614 7.27207C16.4401 6.67474 15.9854 5.84808 15.2921 6.02408C9.94671 7.38807 6 12.1507 6 17.816C6 24.5454 11.5667 30 18.4348 30C23.6348 30 28.0882 26.8733 29.9442 22.4334Z" fill="#17648F"/>
<path d="M22.9434 6.13462C22.2493 5.67102 21.4217 6.49869 21.884 7.19278L22.709 8.43037C23.0436 8.93216 23.2222 9.52183 23.2222 10.125C23.2222 10.7282 23.0436 11.3178 22.709 11.8196L21.884 13.0572C21.4217 13.7513 22.2506 14.579 22.9447 14.1154L24.1808 13.2903C24.6826 12.9556 25.2722 12.777 25.8753 12.777C26.4785 12.777 27.0681 12.9556 27.5698 13.2903L28.8073 14.1154C29.5014 14.579 30.329 13.7513 29.8654 13.0572L29.0404 11.8196C28.7057 11.3178 28.5271 10.7282 28.5271 10.125C28.5271 9.52183 28.7057 8.93216 29.0404 8.43037L29.8654 7.19278C30.329 6.49869 29.5013 5.67102 28.806 6.13462L27.5698 6.95967C27.0681 7.29437 26.4785 7.47298 25.8753 7.47298C25.2722 7.47298 24.6826 7.29437 24.1808 6.95967L22.9434 6.13462Z" fill="#17648F"/>
</svg>
