<svg width="36" height="38" viewBox="0 0 36 38" fill="none" xmlns="http://www.w3.org/2000/svg">
<path d="M25.181 0L25.1762 1.84759e-05C23.2298 0.00754875 21.3094 0.466406 19.555 1.34318C18.2499 1.99542 17.0611 2.86672 16.0348 3.91893C15.0085 2.86672 13.8197 1.99542 12.5146 1.34318C10.7602 0.466406 8.83983 0.00753951 6.89337 9.23794e-06H4.27539C3.56582 9.23794e-06 2.99059 0.598199 2.99059 1.3361V4.05363C2.99059 4.79153 3.56582 5.38972 4.27539 5.38972H6.88592C7.62693 5.39306 8.357 5.50463 9.05652 5.71606C7.18293 6.11774 5.40559 6.94296 3.85564 8.14628L1.41404 10.0502C1.14141 10.2628 0.961157 10.5794 0.91295 10.9302C0.864744 11.281 0.952528 11.6373 1.15699 11.9208L2.72491 14.0949C3.15063 14.6851 3.95588 14.8048 4.52355 14.3621L6.96199 12.4606C7.6654 11.9143 8.44652 11.4972 9.27161 11.2209C8.39489 12.1212 7.64963 13.1563 7.06391 14.2942C6.10349 16.1599 5.60188 18.2438 5.60379 20.36C5.60446 21.0974 6.17949 21.6949 6.88859 21.6949H9.50179C9.84279 21.6949 10.1698 21.5539 10.4108 21.303C10.6518 21.0521 10.787 20.7119 10.7866 20.3573C10.7853 19.1292 11.0762 17.9198 11.6334 16.8371C12.0903 15.9493 12.7146 15.1692 13.4666 14.5422C13.6468 23.4852 14.8469 29.1917 15.9553 32.6103H14.7282C14.5484 32.6103 14.3707 32.6495 14.2064 32.7254L8.3268 35.443C7.77232 35.6993 7.46584 36.324 7.59181 36.9413C7.71777 37.5585 8.24184 38 8.84862 38H29.1009C29.7077 38 30.2318 37.5585 30.3577 36.9413C30.4837 36.324 30.1772 35.6992 29.6227 35.443L23.743 32.7254C23.5788 32.6495 23.401 32.6103 23.2212 32.6103H21.5056C20.6011 30.4924 18.8802 25.1254 18.6515 14.583C19.3819 15.203 19.9891 15.9685 20.4361 16.8371C20.9934 17.9198 21.2843 19.1292 21.283 20.3573C21.2826 20.7119 21.4178 21.0521 21.6588 21.303C21.8998 21.5539 22.2268 21.6949 22.5678 21.6949H25.181C25.8901 21.6949 26.4651 21.0975 26.4658 20.3601C26.4679 18.244 25.9665 16.1602 25.0063 14.2945C24.4208 13.1568 23.6758 12.1217 22.7993 11.2213C23.6239 11.4976 24.4055 11.9153 25.1085 12.4613L27.546 14.3621C28.1137 14.8048 28.919 14.6851 29.3447 14.0949L30.9126 11.9208C31.1171 11.6373 31.2048 11.281 31.1566 10.9302C31.1084 10.5794 30.9282 10.2628 30.6556 10.0502L28.2161 8.14797L28.2139 8.14628C26.664 6.94296 24.8867 6.11774 23.0131 5.71606C23.7126 5.50463 24.4427 5.39306 25.1837 5.38972H27.7942C28.5038 5.38972 29.079 4.79153 29.079 4.05363V1.3361C29.079 0.598199 28.5038 9.23794e-06 27.7942 9.23794e-06L25.181 0Z" fill="#17648F"/>
<path d="M26.3999 17.3081C27.4087 17.3705 28.4242 17.6054 29.407 18.0271C30.2603 18.3932 31.0346 18.8767 31.7178 19.4528C34.7669 22.0236 35.9852 26.4275 34.4119 30.3713C34.4068 30.3853 34.4016 30.3994 34.396 30.4133C34.167 30.9906 33.5937 31.312 33.0253 31.2265C32.9218 31.2111 32.8184 31.1821 32.7174 31.1387L26.8642 28.6275L24.8432 34.2909C24.5964 34.9827 23.8569 35.3354 23.1917 35.0787C22.5264 34.8219 22.1873 34.053 22.4342 33.3612L24.4873 27.6077L18.0568 24.8488C17.7402 24.713 17.4889 24.4513 17.3586 24.1219C17.2283 23.7925 17.2299 23.4227 17.363 23.0945C18.9119 19.2749 22.6116 17.0734 26.3999 17.3081Z" fill="#FF5D2C"/>
</svg>
