<svg width="120" height="24" viewBox="0 0 120 24" fill="none" xmlns="http://www.w3.org/2000/svg">
<path d="M10.7328 3.59313C11.1869 2.80229 12.3131 2.80229 12.7672 3.59313L14.8189 7.16631C14.9852 7.45601 15.2639 7.66144 15.587 7.73239L19.571 8.60755C20.4528 8.80124 20.8008 9.88783 20.1997 10.5703L17.4836 13.6538C17.2634 13.9038 17.1569 14.2362 17.1902 14.5697L17.6009 18.6838C17.6918 19.5943 16.7806 20.2659 15.955 19.8968L12.2247 18.2294C11.9223 18.0942 11.5777 18.0942 11.2753 18.2294L7.54505 19.8968C6.71943 20.2659 5.80825 19.5943 5.89913 18.6838L6.30976 14.5697C6.34306 14.2362 6.23659 13.9038 6.01638 13.6538L3.30033 10.5703C2.69919 9.88783 3.04723 8.80124 3.92901 8.60755L7.91305 7.73239C8.23606 7.66144 8.51479 7.45601 8.68113 7.16631L10.7328 3.59313Z" fill="#EDBF1B"/>
<path d="M34.7328 3.59313C35.1869 2.80229 36.3131 2.80229 36.7672 3.59313L38.8189 7.16631C38.9852 7.45601 39.2639 7.66144 39.587 7.73239L43.571 8.60755C44.4528 8.80124 44.8008 9.88783 44.1997 10.5703L41.4836 13.6538C41.2634 13.9038 41.1569 14.2362 41.1902 14.5697L41.6009 18.6838C41.6918 19.5943 40.7806 20.2659 39.955 19.8968L36.2247 18.2294C35.9223 18.0942 35.5777 18.0942 35.2753 18.2294L31.545 19.8968C30.7194 20.2659 29.8082 19.5943 29.8991 18.6838L30.3098 14.5697C30.3431 14.2362 30.2366 13.9038 30.0164 13.6538L27.3003 10.5703C26.6992 9.88783 27.0472 8.80124 27.929 8.60755L31.913 7.73239C32.2361 7.66144 32.5148 7.45601 32.6811 7.16631L34.7328 3.59313Z" fill="#EDBF1B"/>
<path d="M58.7328 3.59313C59.1869 2.80229 60.3131 2.80229 60.7672 3.59313L62.8189 7.16631C62.9852 7.45601 63.2639 7.66144 63.587 7.73239L67.571 8.60755C68.4528 8.80124 68.8008 9.88783 68.1997 10.5703L65.4836 13.6538C65.2634 13.9038 65.1569 14.2362 65.1902 14.5697L65.6009 18.6838C65.6918 19.5943 64.7806 20.2659 63.955 19.8968L60.2247 18.2294C59.9223 18.0942 59.5777 18.0942 59.2753 18.2294L55.545 19.8968C54.7194 20.2659 53.8082 19.5943 53.8991 18.6838L54.3098 14.5697C54.3431 14.2362 54.2366 13.9038 54.0164 13.6538L51.3003 10.5703C50.6992 9.88783 51.0472 8.80124 51.929 8.60755L55.913 7.73239C56.2361 7.66144 56.5148 7.45601 56.6811 7.16631L58.7328 3.59313Z" fill="#EDBF1B"/>
<path d="M82.7328 3.59313C83.1869 2.80229 84.3131 2.80229 84.7672 3.59313L86.8189 7.16631C86.9852 7.45601 87.2639 7.66144 87.587 7.73239L91.571 8.60755C92.4528 8.80124 92.8008 9.88783 92.1997 10.5703L89.4836 13.6538C89.2634 13.9038 89.1569 14.2362 89.1902 14.5697L89.6009 18.6838C89.6918 19.5943 88.7806 20.2659 87.955 19.8968L84.2247 18.2294C83.9223 18.0942 83.5777 18.0942 83.2753 18.2294L79.545 19.8968C78.7194 20.2659 77.8082 19.5943 77.8991 18.6838L78.3098 14.5697C78.3431 14.2362 78.2366 13.9038 78.0164 13.6538L75.3003 10.5703C74.6992 9.88783 75.0472 8.80124 75.929 8.60755L79.913 7.73239C80.2361 7.66144 80.5148 7.45601 80.6811 7.16631L82.7328 3.59313Z" fill="#C0C0C0"/>
<path d="M84 3.02673C83.5302 2.92497 83.008 3.11377 82.7328 3.59313L80.6811 7.16631C80.5148 7.45601 80.2361 7.66144 79.913 7.73239L75.929 8.60755C75.0472 8.80124 74.6992 9.88783 75.3003 10.5703L78.0164 13.6538C78.2366 13.9038 78.3431 14.2362 78.3098 14.5697L77.8991 18.6838C77.8082 19.5943 78.7194 20.2659 79.545 19.8968L83.2753 18.2294C83.5049 18.1267 83.7587 18.102 84 18.1552V3.02673Z" fill="#EDBF1B"/>
<path d="M106.733 3.59313C107.187 2.80229 108.313 2.80229 108.767 3.59313L110.819 7.16631C110.985 7.45601 111.264 7.66144 111.587 7.73239L115.571 8.60755C116.453 8.80124 116.801 9.88783 116.2 10.5703L113.484 13.6538C113.263 13.9038 113.157 14.2362 113.19 14.5697L113.601 18.6838C113.692 19.5943 112.781 20.2659 111.955 19.8968L108.225 18.2294C107.922 18.0942 107.578 18.0942 107.275 18.2294L103.545 19.8968C102.719 20.2659 101.808 19.5943 101.899 18.6838L102.31 14.5697C102.343 14.2362 102.237 13.9038 102.016 13.6538L99.3003 10.5703C98.6992 9.88783 99.0472 8.80124 99.929 8.60755L103.913 7.73239C104.236 7.66144 104.515 7.45601 104.681 7.16631L106.733 3.59313Z" fill="#C0C0C0"/>
</svg>
