<svg width="32" height="32" viewBox="0 0 32 32" fill="none" xmlns="http://www.w3.org/2000/svg">
<g clip-path="url(#clip0_349_414)">
<path fill-rule="evenodd" clip-rule="evenodd" d="M8.0636 18.5406C10.9566 21.4338 15.6472 21.434 18.5405 18.541C21.4337 15.648 21.4338 10.9574 18.5408 8.06416C15.6478 5.17095 10.9572 5.17077 8.06399 8.06377C5.17078 10.9568 5.1706 15.6474 8.0636 18.5406ZM6.31739 20.2867C9.87908 23.8486 15.4843 24.1218 19.3595 21.1062L20.9566 22.7034C20.7365 23.5272 20.9496 24.4427 21.5959 25.089L23.7785 27.2718C24.7408 28.2341 26.2997 28.2362 27.2646 27.2781C27.2667 27.276 27.2688 27.274 27.2708 27.2719C27.2729 27.2698 27.275 27.2678 27.277 27.2657C28.2352 26.3009 28.2332 24.7419 27.271 23.7796L25.0884 21.5968C24.4421 20.9505 23.5266 20.7373 22.7028 20.9573L21.1057 19.3601C24.1215 15.4851 23.8487 9.87998 20.287 6.31808C16.4297 2.46047 10.1755 2.46023 6.31791 6.31756C2.4603 10.1749 2.46006 16.4291 6.31739 20.2867Z" fill="#17648F"/>
</g>
<defs>
<clipPath id="clip0_349_414">
<rect width="32" height="32" fill="white"/>
</clipPath>
</defs>
</svg>
